<svg width="14" height="10" xmlns="http://www.w3.org/2000/svg">
  <rect x="0" y="0" width="1" height="1" fill="#00133C" />
  <rect x="1" y="0" width="1" height="1" fill="#5F264C" />
  <rect x="2" y="0" width="1" height="1" fill="#280A25" />
  <rect x="3" y="0" width="1" height="1" fill="#001530" />
  <rect x="4" y="0" width="1" height="1" fill="#4E071D" />
  <rect x="5" y="0" width="1" height="1" fill="#2D1911" />
  <rect x="6" y="0" width="1" height="1" fill="#522C2E" />
  <rect x="7" y="0" width="1" height="1" fill="#5E2011" />
  <rect x="8" y="0" width="1" height="1" fill="#1F2656" />
  <rect x="9" y="0" width="1" height="1" fill="#492A15" />
  <rect x="10" y="0" width="1" height="1" fill="#5A151A" />
  <rect x="11" y="0" width="1" height="1" fill="#5F264C" />
  <rect x="12" y="0" width="1" height="1" fill="#5D2F52" />
  <rect x="13" y="0" width="1" height="1" fill="#652E29" />

  <rect x="0" y="1" width="1" height="1" fill="#00264E" />
  <rect x="1" y="1" width="1" height="1" fill="#004C62" />
  <rect x="2" y="1" width="1" height="1" fill="#001530" />
  <rect x="3" y="1" width="1" height="1" fill="#002A3D" />
  <rect x="4" y="1" width="1" height="1" fill="#000E25" />
  <rect x="5" y="1" width="1" height="1" fill="#003216" />
  <rect x="6" y="1" width="1" height="1" fill="#00593C" />
  <rect x="7" y="1" width="1" height="1" fill="#004016" />
  <rect x="8" y="1" width="1" height="1" fill="#004E6F" />
  <rect x="9" y="1" width="1" height="1" fill="#00541B" />
  <rect x="10" y="1" width="1" height="1" fill="#002A21" />
  <rect x="11" y="1" width="1" height="1" fill="#004C62" />
  <rect x="12" y="1" width="1" height="1" fill="#005E6A" />
  <rect x="13" y="1" width="1" height="1" fill="#005E35" />

  <rect x="0" y="2" width="1" height="1" fill="#000D2F" />
  <rect x="1" y="2" width="1" height="1" fill="#BA1A3C" />
  <rect x="2" y="2" width="1" height="1" fill="#4E071D" />
  <rect x="3" y="2" width="1" height="1" fill="#000E25" />
  <rect x="4" y="2" width="1" height="1" fill="#980517" />
  <rect x="5" y="2" width="1" height="1" fill="#57110D" />
  <rect x="6" y="2" width="1" height="1" fill="#9F1E24" />
  <rect x="7" y="2" width="1" height="1" fill="#B7160D" />
  <rect x="8" y="2" width="1" height="1" fill="#3C1A44" />
  <rect x="9" y="2" width="1" height="1" fill="#8F1D10" />
  <rect x="10" y="2" width="1" height="1" fill="#AF0E14" />
  <rect x="11" y="2" width="1" height="1" fill="#BA1A3C" />
  <rect x="12" y="2" width="1" height="1" fill="#B62040" />
  <rect x="13" y="2" width="1" height="1" fill="#C52020" />

  <rect x="0" y="3" width="1" height="1" fill="#002E1B" />
  <rect x="1" y="3" width="1" height="1" fill="#6B5B23" />
  <rect x="2" y="3" width="1" height="1" fill="#2D1911" />
  <rect x="3" y="3" width="1" height="1" fill="#003216" />
  <rect x="4" y="3" width="1" height="1" fill="#57110D" />
  <rect x="5" y="3" width="1" height="1" fill="#323B08" />
  <rect x="6" y="3" width="1" height="1" fill="#5B6B15" />
  <rect x="7" y="3" width="1" height="1" fill="#694D08" />
  <rect x="8" y="3" width="1" height="1" fill="#235D27" />
  <rect x="9" y="3" width="1" height="1" fill="#526509" />
  <rect x="10" y="3" width="1" height="1" fill="#65330C" />
  <rect x="11" y="3" width="1" height="1" fill="#6B5B23" />
  <rect x="12" y="3" width="1" height="1" fill="#697025" />
  <rect x="13" y="3" width="1" height="1" fill="#717013" />

  <rect x="0" y="4" width="1" height="1" fill="#00524C" />
  <rect x="1" y="4" width="1" height="1" fill="#C3A360" />
  <rect x="2" y="4" width="1" height="1" fill="#522C2E" />
  <rect x="3" y="4" width="1" height="1" fill="#00593C" />
  <rect x="4" y="4" width="1" height="1" fill="#9F1E24" />
  <rect x="5" y="4" width="1" height="1" fill="#5B6B15" />
  <rect x="6" y="4" width="1" height="1" fill="#A6BF3A" />
  <rect x="7" y="4" width="1" height="1" fill="#BF8A16" />
  <rect x="8" y="4" width="1" height="1" fill="#3FA66D" />
  <rect x="9" y="4" width="1" height="1" fill="#95B51A" />
  <rect x="10" y="4" width="1" height="1" fill="#B75B21" />
  <rect x="11" y="4" width="1" height="1" fill="#C3A360" />
  <rect x="12" y="4" width="1" height="1" fill="#BFCA67" />
  <rect x="13" y="4" width="1" height="1" fill="#CEC934" />

  <rect x="0" y="5" width="1" height="1" fill="#003B1C" />
  <rect x="1" y="5" width="1" height="1" fill="#E07523" />
  <rect x="2" y="5" width="1" height="1" fill="#5E2011" />
  <rect x="3" y="5" width="1" height="1" fill="#004016" />
  <rect x="4" y="5" width="1" height="1" fill="#B7160D" />
  <rect x="5" y="5" width="1" height="1" fill="#694D08" />
  <rect x="6" y="5" width="1" height="1" fill="#BF8A16" />
  <rect x="7" y="5" width="1" height="1" fill="#DC6308" />
  <rect x="8" y="5" width="1" height="1" fill="#487828" />
  <rect x="9" y="5" width="1" height="1" fill="#AC820A" />
  <rect x="10" y="5" width="1" height="1" fill="#D3410C" />
  <rect x="11" y="5" width="1" height="1" fill="#E07523" />
  <rect x="12" y="5" width="1" height="1" fill="#DB9126" />
  <rect x="13" y="5" width="1" height="1" fill="#ED9113" />

  <rect x="0" y="6" width="1" height="1" fill="#00488E" />
  <rect x="1" y="6" width="1" height="1" fill="#4A8EB3" />
  <rect x="2" y="6" width="1" height="1" fill="#1F2656" />
  <rect x="3" y="6" width="1" height="1" fill="#004E6F" />
  <rect x="4" y="6" width="1" height="1" fill="#3C1A44" />
  <rect x="5" y="6" width="1" height="1" fill="#235D27" />
  <rect x="6" y="6" width="1" height="1" fill="#3FA66D" />
  <rect x="7" y="6" width="1" height="1" fill="#487828" />
  <rect x="8" y="6" width="1" height="1" fill="#1891CA" />
  <rect x="9" y="6" width="1" height="1" fill="#399D31" />
  <rect x="10" y="6" width="1" height="1" fill="#454F3D" />
  <rect x="11" y="6" width="1" height="1" fill="#4A8EB3" />
  <rect x="12" y="6" width="1" height="1" fill="#48AFC0" />
  <rect x="13" y="6" width="1" height="1" fill="#4EAF61" />

  <rect x="0" y="7" width="1" height="1" fill="#004E22" />
  <rect x="1" y="7" width="1" height="1" fill="#AF9A2B" />
  <rect x="2" y="7" width="1" height="1" fill="#492A15" />
  <rect x="3" y="7" width="1" height="1" fill="#00541B" />
  <rect x="4" y="7" width="1" height="1" fill="#8F1D10" />
  <rect x="5" y="7" width="1" height="1" fill="#526509" />
  <rect x="6" y="7" width="1" height="1" fill="#95B51A" />
  <rect x="7" y="7" width="1" height="1" fill="#AC820A" />
  <rect x="8" y="7" width="1" height="1" fill="#399D31" />
  <rect x="9" y="7" width="1" height="1" fill="#86AB0C" />
  <rect x="10" y="7" width="1" height="1" fill="#A5560F" />
  <rect x="11" y="7" width="1" height="1" fill="#AF9A2B" />
  <rect x="12" y="7" width="1" height="1" fill="#ABBF2F" />
  <rect x="13" y="7" width="1" height="1" fill="#B9BE18" />

  <rect x="0" y="8" width="1" height="1" fill="#00272A" />
  <rect x="1" y="8" width="1" height="1" fill="#D74D36" />
  <rect x="2" y="8" width="1" height="1" fill="#5A151A" />
  <rect x="3" y="8" width="1" height="1" fill="#002A21" />
  <rect x="4" y="8" width="1" height="1" fill="#AF0E14" />
  <rect x="5" y="8" width="1" height="1" fill="#65330C" />
  <rect x="6" y="8" width="1" height="1" fill="#B75B21" />
  <rect x="7" y="8" width="1" height="1" fill="#D3410C" />
  <rect x="8" y="8" width="1" height="1" fill="#454F3D" />
  <rect x="9" y="8" width="1" height="1" fill="#A5560F" />
  <rect x="10" y="8" width="1" height="1" fill="#CA2B12" />
  <rect x="11" y="8" width="1" height="1" fill="#D74D36" />
  <rect x="12" y="8" width="1" height="1" fill="#D2603A" />
  <rect x="13" y="8" width="1" height="1" fill="#E3601D" />

  <rect x="0" y="9" width="1" height="1" fill="#00467D" />
  <rect x="1" y="9" width="1" height="1" fill="#E48B9E" />
  <rect x="2" y="9" width="1" height="1" fill="#5F264C" />
  <rect x="3" y="9" width="1" height="1" fill="#004C62" />
  <rect x="4" y="9" width="1" height="1" fill="#BA1A3C" />
  <rect x="5" y="9" width="1" height="1" fill="#6B5B23" />
  <rect x="6" y="9" width="1" height="1" fill="#C3A360" />
  <rect x="7" y="9" width="1" height="1" fill="#E07523" />
  <rect x="8" y="9" width="1" height="1" fill="#4A8EB3" />
  <rect x="9" y="9" width="1" height="1" fill="#AF9A2B" />
  <rect x="10" y="9" width="1" height="1" fill="#D74D36" />
  <rect x="11" y="9" width="1" height="1" fill="#E48B9E" />
  <rect x="12" y="9" width="1" height="1" fill="#DFACAA" />
  <rect x="13" y="9" width="1" height="1" fill="#F1AB56" />
</svg>